# xmcd
#
# Track frame offsets: 
#        300
#        20820
#        36881
#        48935
#        64206
#        87827
#        98570
#        116242
#        137667
#        157451
#        181357
#        199274
#        226425
#        245319
#        262518
#        277251
#
# Disc length: 3935 seconds
#
# Revision: 2
# Processed by: cddbd v1.5.2PL0 Copyright (c) Steve Scherf et al.
# Submitted via: ExactAudioCopyFreeDBPlugin 1.0
#
DISCID=e80f5b10
DTITLE=Various Artist - Viva La Salsa - salsa y latino classics
DYEAR=2004
DGENRE=Salsa
TTITLE0=Boboleo - Ya No Hace Falta
TTITLE1=Gadjo - Besame Mucho
TTITLE2=Perry Como - Papa Loves Mambo
TTITLE3=Cosmo De La Fuente - Maria Isabel
TTITLE4=Havanna Mambo - Dura Vida
TTITLE5=Carlos Bosé - Oye Como Va
TTITLE6=Ultra Banda - El Platano
TTITLE7=Paquito Guzmann - Deja La Luz Encendida
TTITLE8=Maria Montell - Una Historia Mas
TTITLE9=Vallejo - Santiago Y La Habana
TTITLE10=Celia Cruz - La Sopa
TTITLE11=Aramis Galindo - Ya No Te Necesito
TTITLE12=Ritmo Latino - Rosalia
TTITLE13=Marcela Morelo - Para Toda La Vida
TTITLE14=La Bomba feat Los Primos - Chiquitan
TTITLE15=Paula Rubio - Y Yo Yigo Aqui
EXTD=YEAR: 2004
EXTT0=
EXTT1=
EXTT2=
EXTT3=
EXTT4=
EXTT5=
EXTT6=
EXTT7=
EXTT8=
EXTT9=
EXTT10=
EXTT11=
EXTT12=
EXTT13=
EXTT14=
EXTT15=
PLAYORDER=
